<svg xmlns="http://www.w3.org/2000/svg" width="240" height="154" viewBox="0 0 240 154">
  <g id="Path_719" data-name="Path 719" fill="#fff" opacity="0.7">
    <path d="M 120 153.5 C 111.8798522949219 153.5 103.7649993896484 152.9751129150391 95.88091278076172 151.9398803710938 C 88.19837951660156 150.93115234375 80.6419677734375 149.4260559082031 73.42156219482422 147.4664154052734 C 66.33417510986328 145.5428771972656 59.49893951416016 143.1623229980469 53.10573577880859 140.3908538818359 C 46.77614593505859 137.64697265625 40.82488250732422 134.4963226318359 35.41720581054688 131.0264129638672 C 30.01346969604492 127.5589981079102 25.10847091674805 123.744499206543 20.83847045898438 119.6889114379883 C 16.53205871582031 115.5987091064453 12.83420562744141 111.2275009155273 9.847676277160645 106.6967086791992 C 6.809764862060547 102.0879669189453 4.477058887481689 97.26653289794922 2.914323568344116 92.36626434326172 C 1.312294125556946 87.34270477294922 0.5 82.17273712158203 0.5 77 C 0.5 71.82726287841797 1.312294125556946 66.65732574462891 2.914323568344116 61.63373565673828 C 4.477058887481689 56.73347091674805 6.809764862060547 51.91202926635742 9.847676277160645 47.30332183837891 C 12.83420562744141 42.77249908447266 16.53205871582031 38.40129470825195 20.83847045898438 34.31111907958984 C 25.10847091674805 30.25550079345703 30.01346969604492 26.44099998474121 35.41720581054688 22.97358894348145 C 40.82488250732422 19.50367736816406 46.77614593505859 16.35302925109863 53.10573577880859 13.60914707183838 C 59.49893951416016 10.83767604827881 66.33417510986328 8.457118034362793 73.42156219482422 6.533588409423828 C 80.6419677734375 4.573941230773926 88.19837951660156 3.06885290145874 95.88091278076172 2.060117721557617 C 103.7649993896484 1.024911761283875 111.8798522949219 0.5 120 0.5 C 128.1201477050781 0.5 136.2350006103516 1.024911761283875 144.1190948486328 2.060117721557617 C 151.8016510009766 3.06885290145874 159.3580627441406 4.573941230773926 166.5784454345703 6.533588409423828 C 173.6658477783203 8.457118034362793 180.5010833740234 10.83767604827881 186.8942718505859 13.60914707183838 C 193.2238464355469 16.35302925109863 199.1751403808594 19.50367736816406 204.5827941894531 22.97358894348145 C 209.9865570068359 26.44099998474121 214.8915557861328 30.25550079345703 219.1615600585938 34.31111907958984 C 223.4679718017578 38.40129470825195 227.1657867431641 42.77249908447266 230.1523590087891 47.30332183837891 C 233.1902618408203 51.91202926635742 235.5229644775391 56.73347091674805 237.0856781005859 61.63373565673828 C 238.6876983642578 66.65732574462891 239.5 71.82726287841797 239.5 77 C 239.5 82.17273712158203 238.6876983642578 87.34270477294922 237.0856781005859 92.36626434326172 C 235.5229644775391 97.26653289794922 233.1902618408203 102.0879669189453 230.1523590087891 106.6967086791992 C 227.1657867431641 111.2275009155273 223.4679718017578 115.5987091064453 219.1615600585938 119.6889114379883 C 214.8915557861328 123.744499206543 209.9865570068359 127.5589981079102 204.5827941894531 131.0264129638672 C 199.1751403808594 134.4963226318359 193.2238464355469 137.64697265625 186.8942718505859 140.3908538818359 C 180.5010833740234 143.1623229980469 173.6658477783203 145.5428771972656 166.5784454345703 147.4664154052734 C 159.3580627441406 149.4260559082031 151.8016510009766 150.93115234375 144.1190948486328 151.9398803710938 C 136.2350006103516 152.9751129150391 128.1201477050781 153.5 120 153.5 Z" stroke="none"/>
    <path d="M 120 1 C 111.9015350341797 1 103.80859375 1.523468017578125 95.94599914550781 2.55584716796875 C 88.28559875488281 3.561691284179688 80.7513427734375 5.062347412109375 73.55250549316406 7.016128540039063 C 66.48822021484375 8.93341064453125 59.67581176757813 11.30593872070313 53.30459594726563 14.06787109375 C 46.99961853027344 16.80108642578125 41.07228088378906 19.93899536132813 35.68722534179688 23.3944091796875 C 30.30996704101563 26.84481048583984 25.42996215820313 30.63968658447266 21.18278503417969 34.67362213134766 C 16.90396118164063 38.73762512207031 13.230712890625 43.07943725585938 10.26512145996094 47.57846832275391 C 7.252410888671875 52.14900207519531 4.939498901367188 56.92897033691406 3.39068603515625 61.78562164306641 C 1.804336547851563 66.76003265380859 1 71.87887573242188 1 77 C 1 82.12112426757813 1.804336547851563 87.23996734619141 3.39068603515625 92.21437072753906 C 4.939498901367188 97.07102966308594 7.252410888671875 101.8509979248047 10.26512145996094 106.4215316772461 C 13.230712890625 110.9205627441406 16.90396118164063 115.2623748779297 21.18278503417969 119.3263702392578 C 25.42996215820313 123.3603134155273 30.30996704101563 127.1551895141602 35.68722534179688 130.6055908203125 C 41.07228088378906 134.0610046386719 46.99961853027344 137.1989135742188 53.30459594726563 139.93212890625 C 59.67581176757813 142.6940612792969 66.48822021484375 145.0665893554688 73.55250549316406 146.9838714599609 C 80.7513427734375 148.9376525878906 88.28559875488281 150.4383087158203 95.94599914550781 151.4441528320313 C 103.80859375 152.4765319824219 111.9015350341797 153 120 153 C 128.0984649658203 153 136.19140625 152.4765319824219 144.0540008544922 151.4441528320313 C 151.7143859863281 150.4383087158203 159.2486572265625 148.9376525878906 166.4474792480469 146.9838714599609 C 173.5117797851563 145.0665893554688 180.3241577148438 142.6940612792969 186.6954040527344 139.93212890625 C 193.0003356933594 137.1989135742188 198.9276885986328 134.0610046386719 204.312744140625 130.6055908203125 C 209.6900329589844 127.1551895141602 214.5700378417969 123.3603134155273 218.8172149658203 119.3263702392578 C 223.0960388183594 115.2623748779297 226.769287109375 110.9205627441406 229.7348785400391 106.4215316772461 C 232.7475891113281 101.8509979248047 235.0605010986328 97.07102966308594 236.6093139648438 92.21437072753906 C 238.1956634521484 87.23996734619141 239 82.12112426757813 239 77 C 239 71.87887573242188 238.1956634521484 66.76003265380859 236.6093139648438 61.78562164306641 C 235.0605010986328 56.92897033691406 232.7475891113281 52.14900207519531 229.7348785400391 47.57846832275391 C 226.769287109375 43.07943725585938 223.0960388183594 38.73762512207031 218.8172149658203 34.67362213134766 C 214.5700378417969 30.63968658447266 209.6900329589844 26.84481048583984 204.312744140625 23.3944091796875 C 198.9276885986328 19.93899536132813 193.0003356933594 16.80108642578125 186.6954040527344 14.06787109375 C 180.3241577148438 11.30593872070313 173.5117797851563 8.93341064453125 166.4474792480469 7.016128540039063 C 159.2486572265625 5.062347412109375 151.7143859863281 3.561691284179688 144.0540008544922 2.55584716796875 C 136.19140625 1.523468017578125 128.0984649658203 1 120 1 M 120 0 C 186.2741546630859 0 240 34.47406005859375 240 77 C 240 119.5259399414063 186.2741546630859 154 120 154 C 53.72581481933594 154 0 119.5259399414063 0 77 C 0 34.47406005859375 53.72581481933594 0 120 0 Z" stroke="none" fill="#707070"/>
  </g>
</svg>
